<svg xmlns="http://www.w3.org/2000/svg" viewBox="0 0 2000 2000"><defs><style>.cls-1{fill:#2b0e72;}.cls-2{fill:#fcefd4;}.cls-3{fill:#005416;stroke:#000;stroke-miterlimit:10;stroke-width:5px;}.cls-4{fill:#773b13;}.cls-5{fill:#fff;}</style></defs><g id="Layer_2" data-name="Layer 2"><g id="Layer_4" data-name="Layer 4"><path class="cls-1" d="M1995.21,901.54c-51.47-.54-77.31-9.84-104.63-19.67-27.72-10-56.38-20.3-112.81-20.3s-85.09,10.32-112.81,20.3c-28.15,10.13-54.74,19.7-109.42,19.7s-81.27-9.57-109.42-19.7c-11.22-4-22.58-8.14-35.88-11.58-19.57-5.06-43.32-8.72-76.92-8.72-56.43,0-85.09,10.32-112.8,20.3-28.15,10.13-54.74,19.7-109.42,19.7-6.36,0-12.33-.13-18-.37-42.91-1.86-66.57-10.38-91.45-19.33-24.25-8.73-49.22-17.73-92.9-19.84-6.23-.3-12.85-.46-19.9-.46-8.45,0-16.27.23-23.56.66-41.43,2.42-65.68,11.15-89.24,19.64-28.15,10.13-54.74,19.7-109.42,19.7s-81.27-9.57-109.41-19.7c-27.72-10-56.38-20.3-112.81-20.3s-85.09,10.32-112.8,20.3c-28.15,10.13-54.74,19.7-109.42,19.7S141,892,112.8,881.87c-26.11-9.4-53.07-19.11-103.31-20.2C76.86,374.85,494.66,0,1000,0,1519.05,0,1945.75,395.47,1995.21,901.54Z"/><path class="cls-2" d="M2000,1000c0,552.28-447.72,1000-1000,1000S0,1552.28,0,1000A1008.17,1008.17,0,0,1,9.49,861.67c50.24,1.09,77.2,10.8,103.31,20.2,28.15,10.13,54.74,19.7,109.42,19.7s81.27-9.57,109.42-19.7c27.71-10,56.37-20.3,112.8-20.3s85.09,10.32,112.81,20.3c28.14,10.13,54.73,19.7,109.41,19.7s81.27-9.57,109.42-19.7c23.56-8.49,47.81-17.22,89.24-19.64,7.29-.43,15.11-.66,23.56-.66,7,0,13.67.16,19.9.46,43.68,2.11,68.65,11.11,92.9,19.84,24.88,9,48.54,17.47,91.45,19.33,5.64.24,11.61.37,18,.37,54.68,0,81.27-9.57,109.42-19.7,27.71-10,56.37-20.3,112.8-20.3,33.6,0,57.35,3.66,76.92,8.72,13.3,3.44,24.66,7.54,35.88,11.58,28.15,10.13,54.74,19.7,109.42,19.7s81.27-9.57,109.42-19.7c27.72-10,56.38-20.3,112.81-20.3s85.09,10.32,112.81,20.3c27.32,9.83,53.16,19.13,104.63,19.67Q2000,950.13,2000,1000Z"/><path d="M1231.19,1700.25h-.31c-10.13.35-19.58.5-28.36.5q-49.63,0-70.9-11.14-38.49-19.23-38.49-76V487.6a33.71,33.71,0,0,0-33.74-33.73H942.51a33.7,33.7,0,0,0-33.73,33.73V1623.78q0,104.33,45.58,169.66t173.21,65.34a623.38,623.38,0,0,0,73.43-4.06q19.56-2.33,38.28-6.35a34,34,0,0,0,27-33.09v-81.34A33.81,33.81,0,0,0,1231.19,1700.25Z"/><ellipse class="cls-3" cx="988.9" cy="733.21" rx="155.69" ry="459.24" transform="translate(60.95 1542.18) rotate(-77.64)"/><ellipse class="cls-3" cx="988.9" cy="733.21" rx="76.86" ry="226.72" transform="translate(60.95 1542.18) rotate(-77.64)"/><polyline class="cls-3" points="767.44 684.67 1065.37 224.41 1277.82 141.22 1460.95 141.22 1299.19 189.75 1206.76 300.67 1210.36 781.76"/><rect class="cls-4" x="759.84" y="1200.79" width="504.11" height="144.83" rx="72.42"/><path class="cls-5" d="M1739.43,502.23a164.64,164.64,0,0,1-25.63,19.87c-81.91,51.59-190.26,27-241.84-54.94s-27-190.27,54.94-241.85a164.72,164.72,0,0,1,29-14.53,175.18,175.18,0,0,0,183.54,291.45Z"/><circle class="cls-5" cx="472.44" cy="389.17" r="31.69"/><path class="cls-5" d="M733.83,107.65c3.39,36.9,6.15,39.65,43,43-36.9,3.39-39.66,6.15-43,43-3.4-36.89-6.15-39.65-43.05-43,36.9-3.4,39.65-6.15,43.05-43Z"/><path class="cls-5" d="M236.55,557.15c3.65,39.65,6.61,42.61,46.26,46.26-39.65,3.65-42.61,6.61-46.26,46.26-3.65-39.65-6.61-42.61-46.26-46.26,39.65-3.65,42.61-6.61,46.26-46.26Z"/><circle class="cls-5" cx="1713.39" cy="707.17" r="26.04"/></g></g></svg>