<svg fill="none" width="64" height="64" viewBox="0 0 64 64" xmlns="http://www.w3.org/2000/svg">
    <path d="M32 0.000796583C24.4157 -0.0537232 17.0625 2.69195 11.2691 7.74176C5.47561 12.7916 1.6239 19.8125 0.409841 27.536C-0.804221 35.2596 0.699426 43.1764 4.64912 49.8561C8.59881 56.5359 14.7341 61.5381 21.9464 63.9589C23.5354 64.2271 24.0554 63.1244 24.0554 62.3197V56.8359C15.3018 58.7433 13.4529 52.4846 13.4529 52.4846C11.864 48.64 9.75505 47.567 9.75505 47.567C7.09721 45.6298 10.0439 45.6298 10.0439 45.6298C13.2218 45.6298 15.0418 48.9082 15.0418 48.9082C17.6997 53.8258 22.4664 52.4846 24.3154 51.6501C24.314 50.8278 24.4775 50.014 24.7957 49.2601C25.1139 48.5061 25.5799 47.8282 26.1643 47.269C19.0286 46.4643 11.604 43.7224 11.604 30.8771C11.604 27.5988 12.9329 24.6184 15.0707 22.413C14.5042 21.0315 14.2123 19.5468 14.2123 18.0468C14.2123 16.5468 14.5042 15.062 15.0707 13.6806C15.0707 13.6806 17.6997 12.8461 24.0554 16.9589C29.2555 15.4986 34.7445 15.4986 39.9446 16.9589C46.0114 12.8461 48.6693 13.6806 48.6693 13.6806C49.2358 15.062 49.5277 16.5468 49.5277 18.0468C49.5277 19.5468 49.2358 21.0315 48.6693 22.413C51.0671 24.6184 52.136 27.5988 52.136 31.1752C52.136 43.7224 44.7114 46.4643 37.5757 47.269C38.8757 48.3717 39.9446 50.0109 39.9446 53.2893V62.3197C39.9446 63.1244 40.2335 64.2271 42.0536 63.9589C49.2659 61.5381 55.4012 56.5359 59.3509 49.8561C63.3006 43.1764 64.8042 35.2596 63.5902 27.536C62.3761 19.8125 58.5244 12.7916 52.7309 7.74176C46.9375 2.69195 39.5843 -0.0537232 32 0.000796583Z" fill="current"/>
</svg>