<svg [attr.fill]="Color" [attr.height]="Height" [attr.width]="Width" viewBox="0 0 64 32" fill="none" xmlns="http://www.w3.org/2000/svg">
    <path d="M6.08 16C6.08 10.528 10.528 6.08 16 6.08H28.8V0H16C7.168 0 0 7.168 0 16C0 24.832 7.168 32 16 32H28.8V25.92H16C10.528 25.92 6.08 21.472 6.08 16ZM19.2 19.2H44.8V12.8H19.2V19.2ZM48 0H35.2V6.08H48C53.472 6.08 57.92 10.528 57.92 16C57.92 21.472 53.472 25.92 48 25.92H35.2V32H48C56.832 32 64 24.832 64 16C64 7.168 56.832 0 48 0Z" [attr.fill]="Color" />
</svg>