<svg [attr.height]="Height" [attr.width]="Width" viewBox="0 0 1792 124" fill="none" xmlns="http://www.w3.org/2000/svg">
	<path fill-rule="evenodd" clip-rule="evenodd" d="M1770.44 42.4104C1781.29 31.5538 1788 16.5604 1788 7.62939e-06L1792 0C1792 1.33605 1791.96 2.67002 1791.87 4C1791.43 11.0364 1789.83 17.9613 1787.13 24.4917C1783.91 32.2566 1779.2 39.3119 1773.25 45.2548C1767.31 51.1978 1760.26 55.912 1752.49 59.1283C1749.68 60.291 1746.8 61.2497 1743.87 62C1746.8 62.7503 1749.68 63.709 1752.49 64.8717C1760.26 68.088 1767.31 72.8022 1773.25 78.7452C1779.2 84.6881 1783.91 91.7434 1787.13 99.5083C1789.83 106.039 1791.43 112.964 1791.87 120C1791.96 121.33 1792 122.664 1792 124H1788C1788 107.723 1781.52 92.9593 1771 82.15C1770.9 82.0508 1770.8 81.952 1770.7 81.8534C1770.61 81.7599 1770.52 81.6666 1770.43 81.5736C1770.23 81.3777 1770.03 81.1833 1769.83 80.9903C1759.03 70.4757 1744.27 64 1728 64L939.26 64L896 107.26L852.74 64H64C47.4315 64 32.4315 70.7157 21.5736 81.5736L21.5656 81.5816C10.7124 92.4388 4 107.436 4 124L0 124C0 122.664 0.0418326 121.33 0.125118 120C0.565752 112.964 2.16669 106.039 4.87171 99.5083C8.08801 91.7434 12.8022 84.6881 18.7452 78.7452C24.6881 72.8022 31.7434 68.088 39.5083 64.8717C42.3153 63.709 45.1952 62.7503 48.1255 62C45.1952 61.2497 42.3153 60.291 39.5083 59.1283C31.7434 55.912 24.6881 51.1978 18.7452 45.2548C12.8022 39.3119 8.08801 32.2566 4.87171 24.4917C2.16669 17.9613 0.565752 11.0364 0.125118 4C0.0418326 2.67002 0 1.33606 0 7.62939e-06H4C4 16.4067 10.5852 31.2754 21.2567 42.1071C21.3619 42.214 21.4676 42.3204 21.5736 42.4264L21.6373 42.49C21.7222 42.5747 21.8074 42.6591 21.8929 42.7433C32.7246 53.4148 47.5933 60 64 60H852.75L896 16.75L939.25 60L1728.02 60C1744.58 59.9958 1759.57 53.2809 1770.43 42.4264L1770.44 42.4104ZM933.603 64H933.596L935.595 62.0014L896 22.4069L856.405 62.0014L858.404 64H858.397L896 101.603L933.603 64Z" fill="url(#paint0_linear_735_73)"/>
	<defs>
		<linearGradient id="paint0_linear_735_73" x1="1792" y1="0" x2="0" y2="0" gradientUnits="userSpaceOnUse">
			<stop stop-color="#CFAB55"/>
			<stop offset="0.491537" stop-color="#CBA252"/>
			<stop offset="1" stop-color="#976118"/>
		</linearGradient>
	</defs>
</svg>