<svg fill="none" [ngClass]="{'Right_Corner': Corner === 'Right'}" viewBox="0 0 136 136" xmlns="http://www.w3.org/2000/svg">
	<circle cy="136" r="83" fill="#CFAB55"/>
	<mask id="path-2-outside-1_169_173" maskUnits="userSpaceOnUse" x="-8" y="38" width="106" height="106" fill="black">
		<rect fill="white" x="-8" y="38" width="106" height="106"/>
		<path d="M90 136C90 124.181 87.6721 112.478 83.1492 101.558C78.6262 90.6392 71.9969 80.7177 63.6396 72.3604C55.2823 64.0031 45.3608 57.3738 34.4415 52.8508C23.5222 48.3279 11.819 46 -7.62939e-06 46L0 136H90Z"/>
	</mask>
	<path d="M90 136C90 124.181 87.6721 112.478 83.1492 101.558C78.6262 90.6392 71.9969 80.7177 63.6396 72.3604C55.2823 64.0031 45.3608 57.3738 34.4415 52.8508C23.5222 48.3279 11.819 46 -7.62939e-06 46L0 136H90Z" stroke="#CFAB55" stroke-width="16" mask="url(#path-2-outside-1_169_173)"/>
	<mask id="path-3-outside-2_169_173" maskUnits="userSpaceOnUse" x="-8" y="38" width="106" height="106" fill="black">
		<rect fill="white" x="-8" y="38" width="106" height="106"/>
		<path d="M90 136C90 124.181 87.6721 112.478 83.1492 101.558C78.6262 90.6392 71.9969 80.7177 63.6396 72.3604C55.2823 64.0031 45.3608 57.3738 34.4415 52.8508C23.5222 48.3279 11.819 46 -7.62939e-06 46L0 136H90Z"/>
	</mask>
	<path d="M90 136C90 124.181 87.6721 112.478 83.1492 101.558C78.6262 90.6392 71.9969 80.7177 63.6396 72.3604C55.2823 64.0031 45.3608 57.3738 34.4415 52.8508C23.5222 48.3279 11.819 46 -7.62939e-06 46L0 136H90Z" stroke="#CFAB55" stroke-width="16" mask="url(#path-3-outside-2_169_173)"/>
	<mask id="path-4-outside-3_169_173" maskUnits="userSpaceOnUse" x="-8" y="26" width="118" height="118" fill="black">
		<rect fill="white" x="-8" y="26" width="118" height="118"/>
		<path d="M102 136C102 122.605 99.3617 109.341 94.2357 96.9663C89.1097 84.5911 81.5965 73.3467 72.1249 63.8751C62.6533 54.4035 51.4089 46.8903 39.0337 41.7643C26.6585 36.6383 13.3948 34 -7.62939e-06 34L0 136H102Z"/>
	</mask>
	<path d="M102 136C102 122.605 99.3617 109.341 94.2357 96.9663C89.1097 84.5911 81.5965 73.3467 72.1249 63.8751C62.6533 54.4035 51.4089 46.8903 39.0337 41.7643C26.6585 36.6383 13.3948 34 -7.62939e-06 34L0 136H102Z" stroke="#CFAB55" stroke-width="16" mask="url(#path-4-outside-3_169_173)"/>
	<mask id="path-5-outside-4_169_173" maskUnits="userSpaceOnUse" x="-8" y="13" width="131" height="131" fill="black">
		<rect fill="white" x="-8" y="13" width="131" height="131"/>
		<path d="M115 136C115 120.898 112.025 105.944 106.246 91.9914C100.467 78.039 91.996 65.3615 81.3173 54.6827C70.6385 44.004 57.961 35.5331 44.0086 29.7539C30.0562 23.9746 15.102 21 -7.62939e-06 21L0 136H115Z"/>
	</mask>
	<path d="M115 136C115 120.898 112.025 105.944 106.246 91.9914C100.467 78.039 91.996 65.3615 81.3173 54.6827C70.6385 44.004 57.961 35.5331 44.0086 29.7539C30.0562 23.9746 15.102 21 -7.62939e-06 21L0 136H115Z" stroke="#CFAB55" stroke-width="16" mask="url(#path-5-outside-4_169_173)"/>
	<mask id="path-6-outside-5_169_173" maskUnits="userSpaceOnUse" x="-8" y="0" width="144" height="144" fill="black">
		<rect fill="white" x="-8" width="144" height="144"/>
		<path d="M128 136C128 119.191 124.689 102.546 118.257 87.0165C111.824 71.4868 102.396 57.3762 90.5097 45.4903C78.6238 33.6044 64.5132 24.176 48.9835 17.7434C33.4538 11.3108 16.8092 8 -7.62939e-06 8L0 136H128Z"/>
	</mask>
	<path d="M128 136C128 119.191 124.689 102.546 118.257 87.0165C111.824 71.4868 102.396 57.3762 90.5097 45.4903C78.6238 33.6044 64.5132 24.176 48.9835 17.7434C33.4538 11.3108 16.8092 8 -7.62939e-06 8L0 136H128Z" stroke="#CFAB55" stroke-width="16" mask="url(#path-6-outside-5_169_173)"/>
</svg>