<svg fill="none" height="130" viewBox="0 0 196 130" width="196" xmlns="http://www.w3.org/2000/svg">
	<path [attr.fill]="Color" d="M179.538 62.0107L172.281 17.1224C172.202 16.638 171.784 16.282 171.293 16.282L97.8721 16.282H24.4508C23.9601 16.282 23.542 16.638 23.4637 17.1224L16.2065 62.0107C16.1082 62.6188 16.5777 63.1703 17.1937 63.1703L46.945 63.1703C47.531 63.1703 47.9914 63.6719 47.9413 64.2558L45.9511 87.4527C45.9007 88.0401 46.3668 88.5434 46.9563 88.5382L71.9656 88.3151C72.5131 88.3102 72.9627 88.7464 72.9743 89.2938L73.1041 95.3868C73.1107 95.6973 73.2612 95.9871 73.5114 96.1711L97.2797 113.651C97.6321 113.91 98.1121 113.91 98.4646 113.651L122.233 96.1711C122.483 95.9871 122.634 95.6973 122.64 95.3868L122.77 89.2938C122.782 88.7464 123.231 88.3102 123.779 88.3151L148.788 88.5382C149.377 88.5434 149.844 88.0401 149.793 87.4527L147.803 64.2558C147.753 63.6719 148.213 63.1703 148.799 63.1703L178.551 63.1703C179.167 63.1703 179.636 62.6188 179.538 62.0107Z"/>
	<path [attr.stroke]="Color" fill-rule="evenodd" clip-rule="evenodd" d="M97.8722 117.881L71.9103 98.7875C70.7632 97.9439 70.0732 96.6153 70.0429 95.1918L69.962 91.3895L47.5643 91.5893C44.8615 91.6134 42.7245 89.306 42.9556 86.6129L44.7047 66.2267L17.8142 66.2267C14.9902 66.2267 12.8377 63.6982 13.2884 60.9104L20.3747 17.0785C20.7338 14.8578 22.651 13.2256 24.9006 13.2256L170.844 13.2256C173.093 13.2256 175.011 14.8578 175.37 17.0785L182.456 60.9104C182.907 63.6982 180.754 66.2267 177.93 66.2267H151.04L152.789 86.6129C153.02 89.306 150.883 91.6134 148.18 91.5893L125.782 91.3895L125.701 95.1918C125.671 96.6153 124.981 97.9439 123.834 98.7875L97.8722 117.881Z"/>
	<path [attr.stroke]="Color" fill-rule="evenodd" clip-rule="evenodd" d="M102.399 118.345C99.7062 120.326 96.0383 120.326 93.3452 118.345L70.0995 101.25C68.1878 99.8438 67.0378 97.6294 66.9872 95.2569L66.9706 94.4727L47.5916 94.6456C43.0869 94.6857 39.5253 90.8401 39.9104 86.3517L41.3749 69.2831L17.8142 69.2831C13.1076 69.2831 9.52002 65.0689 10.2712 60.4226L17.3575 16.5907C17.9559 12.8895 21.1513 10.1692 24.9006 10.1692L170.844 10.1692C174.593 10.1692 177.789 12.8895 178.387 16.5907L185.473 60.4226C186.224 65.0689 182.637 69.2831 177.93 69.2831H154.37L155.834 86.3517C156.219 90.84 152.658 94.6857 148.153 94.6456L128.774 94.4727L128.757 95.2569C128.707 97.6294 127.557 99.8438 125.645 101.25L102.399 118.345Z"/>
	<path [attr.stroke]="Color" fill-rule="evenodd" clip-rule="evenodd" d="M104.21 120.808C100.44 123.58 95.3046 123.58 91.5343 120.808L68.2886 103.712C66.2238 102.193 64.7938 100.001 64.2155 97.5538L47.6187 97.7018C41.3122 97.758 36.3259 92.3741 36.8651 86.0904L38.0449 72.3395H17.8141C11.2248 72.3395 6.20219 66.4396 7.25383 59.9348L14.3402 16.1029C15.1779 10.9212 19.6515 7.11278 24.9005 7.11278L170.844 7.11278C176.093 7.11278 180.566 10.9212 181.404 16.1029L188.49 59.9348C189.542 66.4396 184.519 72.3395 177.93 72.3395H157.699L158.879 86.0904C159.418 92.3741 154.432 97.758 148.126 97.7018L131.529 97.5538C130.95 100.001 129.52 102.193 127.456 103.712L104.21 120.808Z"/>
	<path [attr.stroke]="Color" fill-rule="evenodd" clip-rule="evenodd" d="M106.021 123.27C101.173 126.835 94.5712 126.835 89.7236 123.27L66.4779 106.174C64.5119 104.728 62.9934 102.807 62.0359 100.63L47.6461 100.758C39.5377 100.83 33.1268 93.9082 33.82 85.8291L34.7152 75.3959H17.8143C9.34233 75.3959 2.88465 67.8103 4.23676 59.447L11.3231 15.6151C12.4002 8.9529 18.1519 4.0564 24.9006 4.0564L170.844 4.0564C177.593 4.0564 183.344 8.9529 184.421 15.6151L191.508 59.447C192.86 67.8103 186.402 75.3959 177.93 75.3959H161.029L161.925 85.8291C162.618 93.9082 156.207 100.83 148.098 100.758L133.709 100.63C132.751 102.807 131.233 104.728 129.267 106.174L106.021 123.27Z"/>
	<path [attr.stroke]="Color" fill-rule="evenodd" clip-rule="evenodd" d="M107.832 125.732C101.907 130.089 93.8375 130.089 87.9127 125.732L64.667 108.636C62.8358 107.29 61.3222 105.606 60.1877 103.703L47.6733 103.814C37.763 103.903 29.9274 95.4423 30.7747 85.5678L31.3852 78.4523H17.8141C7.45955 78.4523 -0.433173 69.1811 1.21941 58.9592L8.30577 15.1273C9.62221 6.9846 16.6521 0.999998 24.9005 0.999998L170.844 0.999998C179.092 0.999998 186.122 6.9846 187.438 15.1273L194.525 58.9592C196.177 69.1811 188.285 78.4523 177.93 78.4523H164.359L164.97 85.5678C165.817 95.4423 157.981 103.903 148.071 103.814L135.557 103.703C134.422 105.606 132.908 107.29 131.077 108.636L107.832 125.732Z"/>
</svg>