<svg [ngClass]="{'Right_Corner': Corner === 'Right'}" fill="none" height="132" viewBox="0 0 79 132" width="79" xmlns="http://www.w3.org/2000/svg">
	<path [attr.stroke]="Color" d="M76.5 2C75.7 79.6 23.8333 118.667 -2 128.5L-2 99C39.2 77.8 51.5 25.5 52.5 2L76.5 2Z" stroke-width="4"/>
	<path [attr.stroke]="Color" d="M-0.499884 126.5C2.83345 122.833 8.10012 112.1 2.50012 98.5" stroke-width="2"/>
	<path [attr.stroke]="Color" d="M-0.999998 110C1.83333 113 9.5 119.7 15.5 118.5" stroke-width="2"/>
	<path [attr.stroke]="Color" d="M-2 120C0.333334 121.5 5.5 124.3 7.5 123.5" stroke-width="2"/>
	<path [attr.stroke]="Color" d="M9.50016 93.5C11.8335 96.5 16 107 12 121" stroke-width="2"/>
	<path [attr.stroke]="Color" d="M2.5 98C4.5 103.167 11.3 113.3 24.5 112.5" stroke-width="2"/>
	<path [attr.stroke]="Color" d="M10 93.5C12 98 19.4 106.5 33 104.5" stroke-width="2"/>
	<path [attr.stroke]="Color" d="M20.5 115C22 109.167 23.1996 94.6 15.9996 87" stroke-width="2"/>
	<path [attr.stroke]="Color" d="M16.5 87.5C19 91.1667 27.3 99.5001 40.5 97.5001" stroke-width="2"/>
	<path [attr.stroke]="Color" d="M21.9998 82C25.1664 84 31.0998 91.9 29.4998 107.5" stroke-width="2"/>
	<path [attr.stroke]="Color" d="M22.5 82C26.1667 86 36 92.7999 48 87.9999" stroke-width="2"/>
	<path [attr.stroke]="Color" d="M28.0001 75C31.5001 78 38.3001 87.2 37.5001 100" stroke-width="2"/>
	<path [attr.stroke]="Color" d="M28.5 75.0001C32 78.0001 41.8 83.1001 53 79.5001" stroke-width="2"/>
	<path [attr.stroke]="Color" d="M32.4998 66.5C37.3332 71 46.6998 82.3 45.4998 91.5" stroke-width="2"/>
	<path [attr.stroke]="Color" d="M33.5 66.9998C37 69.4998 47 73.5998 59 69.9998" stroke-width="2"/>
	<path [attr.stroke]="Color" d="M38.5 60C38.5 60.5 49.5 65.5 50.5 84" stroke-width="2"/>
	<path [attr.stroke]="Color" d="M38 59.5C44 62.3333 58.2 66.1002 65 56.5002" stroke-width="2"/>
	<path [attr.stroke]="Color" d="M42.0001 51C47.3334 54.5 57.8001 63.9 57.0001 73.5" stroke-width="2"/>
	<path [attr.stroke]="Color" d="M70 45C65.6667 49.3333 54 56.6 42 51" stroke-width="2"/>
	<path [attr.stroke]="Color" d="M44.5 41.5C51.1667 45.5 63.7 56.4 60.5 68" stroke-width="2"/>
	<path [attr.stroke]="Color" d="M72 33.5C68.6667 39.3334 58.6 49 45 41" stroke-width="2"/>
	<path [attr.stroke]="Color" d="M48.0001 32C54.5001 36.1667 67.1001 46.9 65.5001 56.5" stroke-width="2"/>
	<path [attr.stroke]="Color" d="M50.0001 23.5C57.1668 26.6667 71.1001 36.2 69.5001 49" stroke-width="2"/>
	<path [attr.stroke]="Color" d="M48.5 32.5C55.8333 32.8333 71.2 32.9997 74 24.9997" stroke-width="2"/>
	<path [attr.stroke]="Color" d="M52 14.5C57.6667 16.6667 69.7 22.9 72.5 30.5" stroke-width="2"/>
	<path [attr.stroke]="Color" d="M51 24C57.3333 24.3333 70.3 23.3002 75.5 14.5002" stroke-width="2"/>
	<path [attr.stroke]="Color" d="M53.5 4.5C59.6667 6.33333 72.6 12.3 75 21.5" stroke-width="2"/>
	<path [attr.stroke]="Color" d="M52.5 15C58.8333 14.8333 72.3 12 75.5 2" stroke-width="2"/>
	<line [attr.stroke]="Color" x1="0.517638" y1="3.22411" x2="51.6022" y2="16.9122" stroke-width="4"/>
	<line [attr.stroke]="Color" x1="1" y1="3.26795" x2="46.8012" y2="29.7113" stroke-width="4"/>
	<line [attr.stroke]="Color" x1="1.41421" y1="3.58579" x2="42.4142" y2="44.5858" stroke-width="4"/>
	<line [attr.stroke]="Color" x1="1.73205" y1="4" x2="34.7321" y2="61.1577" stroke-width="4"/>
	<line [attr.stroke]="Color" x1="1.93185" y1="2.48236" x2="22.6374" y2="79.7564" stroke-width="4"/>
</svg>